<svg width="43" height="41" viewBox="0 0 43 41" fill="none" xmlns="http://www.w3.org/2000/svg">
<rect width="43" height="41" rx="14" fill="#FAFAFA"/>
<path d="M28.025 8.94922C28.0745 8.94922 28.124 8.9529 28.1729 8.96022L32.8215 9.65564C33.5382 9.76286 33.9064 10.573 33.516 11.1835L30.3283 16.1673C30.2203 16.3362 30.064 16.4687 29.8798 16.5477L24.5947 18.8127C24.0658 19.0394 23.8369 19.6644 24.0942 20.1791L25.1119 22.2145C25.3298 22.6504 25.2018 23.1799 24.8088 23.4681L11.4693 33.2505C11.5985 33.1456 11.6729 32.9875 11.6714 32.8211L11.4778 9.95769C11.4731 9.40211 11.9222 8.94922 12.4778 8.94922L28.025 8.94922Z" fill="#0F172A"/>
<path d="M29.2279 21.0994C19.7679 16.3194 33.0886 22.788 34.8356 8.01469C29.5412 7.83298 17.6287 14.6267 17.6286 23.9737C22.8217 24.5488 3.63868 33.9404 10.2336 33.9406C14.2729 34.1852 36.4922 24.77 29.2279 21.0994Z" fill="#10B981"/>
</svg>
