<svg width="253" height="246" viewBox="0 0 253 246" fill="none" xmlns="http://www.w3.org/2000/svg">
<path d="M24.2145 19.0688L27.9995 12.0208L27.9995 12.0208L24.2145 19.0688ZM97.8485 58.6127L94.0635 65.6607L97.8485 58.6127ZM150.101 51.623L155.605 57.4284L150.101 51.623ZM201.997 10.2128C202.115 5.79611 198.63 2.12036 194.213 2.00282L122.239 0.0872853C117.822 -0.0302587 114.146 3.45491 114.029 7.87162C113.911 12.2883 117.396 15.9641 121.813 16.0816L185.79 17.7843L184.088 81.7617C183.97 86.1784 187.455 89.8541 191.872 89.9717C196.289 90.0892 199.964 86.604 200.082 82.1873L201.997 10.2128ZM11.9606 36.9235L17.1761 30.8572L11.9606 36.9235ZM13.0799 19.562L17.4732 26.2477L13.0799 19.562ZM24.2145 19.0688L20.4295 26.1167L94.0635 65.6607L97.8485 58.6127L101.634 51.5648L27.9995 12.0208L24.2145 19.0688ZM150.101 51.623L155.605 57.4284L199.505 15.8053L194 9.99998L188.496 4.19463L144.597 45.8177L150.101 51.623ZM247 239L252.216 232.934L17.1761 30.8572L11.9606 36.9235L6.74517 42.9897L241.785 245.066L247 239ZM11.9606 36.9235L17.1761 30.8572C15.7183 29.6039 15.8666 27.3034 17.4732 26.2477L13.0799 19.562L8.68656 12.8763C-1.80931 19.7734 -2.77816 34.8019 6.74517 42.9897L11.9606 36.9235ZM97.8485 58.6127L94.0635 65.6607C114.206 76.4778 139.014 73.1592 155.605 57.4284L150.101 51.623L144.597 45.8177C133.014 56.7996 115.695 59.1163 101.634 51.5648L97.8485 58.6127ZM24.2145 19.0688L27.9995 12.0208C21.8925 8.7411 14.4797 9.06945 8.68656 12.8763L13.0799 19.562L17.4732 26.2477C18.36 25.665 19.4947 25.6147 20.4295 26.1167L24.2145 19.0688Z" fill="#CCD3FF" fill-opacity="0.2"/>
</svg>
