<svg width="541" height="324" viewBox="0 0 541 324" fill="none" xmlns="http://www.w3.org/2000/svg">
<path d="M112.436 618.717C386.035 365.084 732.789 -78.6945 -68.9923 175.253L112.436 618.717Z" fill="#047BDD"/>
<path d="M10.1016 624.222C283.701 370.589 655.678 -11.5349 -146.102 242.412L10.1016 624.222Z" fill="#161616"/>
<path d="M-85.0376 635.404C194.785 396.982 576.862 39.5415 -221.667 301.441L-85.0376 635.404Z" fill="#047BDD"/>
<path d="M-39.0317 553.606C136.337 391.763 374.821 147.992 -138.351 310.84L-39.0317 553.606Z" fill="#161616"/>
<circle cx="1.38781" cy="1.38781" r="1.38781" transform="matrix(0.925539 -0.378652 -0.378652 -0.925539 292.619 187.755)" fill="#047BDD"/>
<circle cx="321.738" cy="146.228" r="1.04086" transform="rotate(157.75 321.738 146.228)" fill="#161616"/>
<circle cx="172.973" cy="154.608" r="1.04086" transform="rotate(157.75 172.973 154.608)" fill="#161616"/>
<circle cx="306.017" cy="296.059" r="17.6946" transform="rotate(176.05 306.017 296.059)" fill="#047BDD"/>
<path d="M307.236 313.711C316.985 313.038 324.363 304.877 323.67 294.84C323.321 289.793 321.951 286.573 318.334 283.036C318.501 285.459 300.564 312.781 300.564 312.781C300.564 312.781 302.044 314.07 307.236 313.711Z" fill="#161616"/>
<circle cx="218.077" cy="253.864" r="1.73476" transform="rotate(157.75 218.077 253.864)" fill="#161616"/>
<rect x="354.699" y="280.416" width="1.82677" height="1.82677" rx="0.481997" transform="rotate(-166.944 354.699 280.416)" fill="#161616"/>
<rect x="245.627" y="150.803" width="2.17432" height="2.17432" rx="0.619105" transform="rotate(-171.796 245.627 150.803)" fill="#161616"/>
<path d="M301.389 236.378C301.177 236.202 301.102 235.911 301.203 235.655L301.637 234.558C301.738 234.302 301.992 234.141 302.267 234.158L303.444 234.232C303.718 234.249 303.951 234.441 304.019 234.707L304.313 235.849C304.381 236.116 304.27 236.396 304.038 236.543L303.043 237.176C302.811 237.323 302.51 237.304 302.298 237.129L301.389 236.378Z" fill="#047BDD"/>
<path d="M152.096 304.902C151.975 304.84 151.907 304.706 151.928 304.572L152.02 303.994C152.041 303.859 152.147 303.753 152.281 303.732L152.859 303.641C152.994 303.619 153.127 303.687 153.189 303.809L153.455 304.33C153.517 304.451 153.493 304.599 153.397 304.696L152.983 305.109C152.887 305.206 152.739 305.229 152.617 305.167L152.096 304.902Z" fill="#047BDD"/>
<path d="M100.229 265.489C100.067 265.375 99.9957 265.169 100.054 264.979L100.303 264.164C100.361 263.974 100.535 263.843 100.734 263.84L101.586 263.825C101.785 263.821 101.963 263.946 102.028 264.134L102.305 264.94C102.37 265.128 102.306 265.336 102.147 265.456L101.467 265.968C101.308 266.088 101.09 266.092 100.927 265.978L100.229 265.489Z" fill="#047BDD"/>
<path d="M63.1014 204.801C62.8473 204.907 62.5542 204.836 62.3754 204.627L61.6091 203.731C61.4303 203.522 61.4065 203.222 61.5502 202.987L62.1657 201.981C62.3093 201.747 62.5877 201.631 62.8553 201.695L64.0019 201.97C64.2695 202.034 64.4654 202.263 64.4871 202.537L64.5803 203.713C64.602 203.987 64.4447 204.244 64.1905 204.349L63.1014 204.801Z" fill="#047BDD"/>
</svg>
