<svg width="95" height="96" viewBox="0 0 95 96" fill="none" xmlns="http://www.w3.org/2000/svg">
<path d="M80.7062 67.5293C81.239 66.5898 81.5701 65.5313 81.5701 64.5808V31.5864C81.5701 30.6359 81.2394 29.5776 80.7064 28.6382L47.6172 48.0837L80.7062 67.5293Z" fill="black" fill-opacity="0.2"/>
<path d="M50.5567 86.2619L78.6288 69.7648C79.4375 69.2896 80.1725 68.4689 80.7053 67.5293L47.6163 48.0837L14.5273 67.5295C15.0602 68.4689 15.7954 69.2898 16.6038 69.7648L44.676 86.2619C46.293 87.2124 48.9396 87.2124 50.5567 86.2619Z" fill="black" fill-opacity="0.2"/>
<path d="M80.7061 28.6382C80.1731 27.6985 79.4379 26.8779 78.6295 26.4026L50.5573 9.90551C48.9402 8.955 46.2937 8.955 44.6766 9.90551L16.6044 26.4026C14.9871 27.3529 13.6641 29.6858 13.6641 31.5866V64.581C13.6641 65.5315 13.9949 66.59 14.528 67.5295L47.6169 48.0839L80.7061 28.6382Z" fill="black" fill-opacity="0.2"/>
<path d="M47.6177 71.1237C35.1366 71.1237 24.9824 60.788 24.9824 48.0837C24.9824 35.3794 35.1366 25.0437 47.6177 25.0437C55.6714 25.0437 63.1825 29.4552 67.2196 36.5565L57.4236 42.3264C55.4031 38.7719 51.6454 36.5637 47.6177 36.5637C41.377 36.5637 36.3 41.7314 36.3 48.0837C36.3 54.4357 41.377 59.6037 47.6177 59.6037C51.6459 59.6037 55.4035 57.3955 57.4243 53.8403L67.2202 59.61C63.1832 66.712 55.6718 71.1237 47.6177 71.1237Z" fill="white"/>
<path d="M70.2521 46.8036H67.7369V44.2437H65.2222V46.8036H62.707V49.3635H65.2222V51.9237H67.7369V49.3635H70.2521V46.8036Z" fill="white"/>
<path d="M79.6838 46.8036H77.1686V44.2437H74.6539V46.8036H72.1387V49.3635H74.6539V51.9237H77.1686V49.3635H79.6838V46.8036Z" fill="white"/>
</svg>
