<svg width="95" height="96" viewBox="0 0 95 96" fill="none" xmlns="http://www.w3.org/2000/svg">
<path d="M78.8295 33.109C78.829 31.8934 78.5736 30.8193 78.0571 29.8978C77.5497 28.991 76.79 28.2313 75.7709 27.6305C67.3585 22.6932 58.938 17.771 50.5284 12.8286C48.2612 11.4963 46.063 11.5451 43.8126 12.8966C40.4642 14.9063 23.7001 24.6826 18.7046 27.6278C16.6474 28.8403 15.6463 30.6955 15.6458 33.1067C15.6426 43.036 15.6458 52.9653 15.6426 62.8945C15.6426 64.0834 15.8876 65.1368 16.3813 66.0446C16.8889 66.9785 17.6593 67.7591 18.7019 68.3734C23.6977 71.3186 40.464 81.0941 43.8116 83.1047C46.063 84.4568 48.2612 84.5052 50.5291 83.1726C58.939 78.23 67.36 73.3078 75.7736 68.3704C76.8162 67.7564 77.5866 66.9752 78.0942 66.0421C78.5872 65.1341 78.8327 64.0809 78.8327 62.8918C78.8327 62.8918 78.8327 43.0385 78.8295 33.109Z" fill="black" fill-opacity="0.2"/>
<path d="M47.3338 47.9038L16.3809 66.0445C16.8884 66.9784 17.6588 67.7591 18.7015 68.3734C23.6972 71.3186 40.4635 81.0941 43.8111 83.1046C46.0625 84.4568 48.2607 84.5051 50.5287 83.1726C58.9385 78.23 67.3595 73.3077 75.7731 68.3704C76.8157 67.7563 77.5861 66.9752 78.0937 66.042L47.3338 47.9038Z" fill="black" fill-opacity="0.2"/>
<path d="M78.8291 33.1089C78.8287 31.8934 78.5733 30.8193 78.0568 29.8977L47.334 47.904L78.0939 66.042C78.5869 65.134 78.8319 64.0808 78.8324 62.8917C78.8324 62.8917 78.8324 43.0384 78.8291 33.1089Z" fill="black" fill-opacity="0.2"/>
<path d="M65.5573 41.1226V44.5134H68.8886V41.1226H70.5542V44.5134H73.8855V46.2089H70.5542V49.5995H73.8855V51.2949H70.5542V54.6858H68.8886V51.2949H65.5573V54.6858H63.8916V51.2949H60.5605V49.5995H63.8916V46.2089H60.5605V44.5134H63.8916V41.1226H65.5573ZM68.8886 46.2086H65.5573V49.5995H68.8886V46.2086Z" fill="white"/>
<path d="M47.4021 24.093C56.0911 24.093 63.6772 28.8962 67.7406 36.0358L67.701 35.9671L57.4776 41.9587C55.4636 38.4875 51.7713 36.1448 47.5354 36.0965L47.4019 36.0957C40.9427 36.0957 35.7062 41.4259 35.7062 48.0006C35.7041 50.0728 36.2359 52.1094 37.2487 53.907C39.2647 57.4894 43.0546 59.9056 47.4021 59.9056C51.7765 59.9056 55.588 57.4587 57.5936 53.8381L57.5449 53.9249L67.7527 59.9441C63.7338 67.0234 56.2516 71.8117 47.6637 71.9071L47.4021 71.9086C38.6857 71.9086 31.0781 67.0757 27.0248 59.8983C25.0462 56.3945 23.9141 52.3324 23.9141 48.0006C23.9141 34.7969 34.4297 24.0928 47.4019 24.0928L47.4021 24.093Z" fill="white"/>
</svg>
