<svg width="155" height="32" viewBox="0 0 155 32" fill="none" xmlns="http://www.w3.org/2000/svg">
<path d="M20.025 3.94922C20.0745 3.94922 20.124 3.9529 20.1729 3.96022L24.8215 4.65564C25.5382 4.76286 25.9064 5.57298 25.516 6.18345L22.3283 11.1673C22.2203 11.3362 22.064 11.4687 21.8798 11.5477L16.5947 13.8127C16.0658 14.0394 15.8369 14.6644 16.0942 15.1791L17.1119 17.2145C17.3298 17.6504 17.2018 18.1799 16.8088 18.4681L3.46928 28.2505C3.59845 28.1456 3.67285 27.9875 3.67144 27.8211L3.47782 4.95769C3.47312 4.40211 3.92219 3.94922 4.47779 3.94922L20.025 3.94922Z" fill="#E7EAEA"/>
<path d="M21.2279 16.0994C11.7679 11.3194 25.0886 17.788 26.8356 3.01469C21.5412 2.83298 9.62872 9.62668 9.62858 18.9737C14.8217 19.5488 -4.36132 28.9404 2.23362 28.9406C6.27294 29.1852 28.4922 19.77 21.2279 16.0994Z" fill="#10B981"/>
<path d="M33.752 24V21.96H41.024C41.584 21.96 42.064 21.832 42.464 21.576C42.864 21.304 43.176 20.96 43.4 20.544C43.624 20.128 43.736 19.688 43.736 19.224C43.736 18.744 43.624 18.304 43.4 17.904C43.192 17.488 42.888 17.16 42.488 16.92C42.104 16.664 41.632 16.536 41.072 16.536H37.904C36.96 16.536 36.128 16.344 35.408 15.96C34.688 15.56 34.12 15.016 33.704 14.328C33.304 13.624 33.104 12.832 33.104 11.952C33.104 11.056 33.296 10.248 33.68 9.528C34.08 8.808 34.632 8.24 35.336 7.824C36.056 7.408 36.88 7.2 37.808 7.2H44.936V9.24H38.024C37.496 9.24 37.032 9.368 36.632 9.624C36.232 9.864 35.928 10.184 35.72 10.584C35.512 10.968 35.408 11.384 35.408 11.832C35.408 12.264 35.504 12.68 35.696 13.08C35.904 13.464 36.2 13.776 36.584 14.016C36.984 14.256 37.44 14.376 37.952 14.376H41.192C42.2 14.376 43.064 14.576 43.784 14.976C44.504 15.376 45.056 15.92 45.44 16.608C45.824 17.296 46.016 18.08 46.016 18.96C46.016 19.936 45.816 20.808 45.416 21.576C45.032 22.328 44.48 22.92 43.76 23.352C43.04 23.784 42.216 24 41.288 24H33.752ZM47.0949 24L52.8069 8.808C53.0629 8.152 53.4149 7.672 53.8629 7.368C54.3109 7.064 54.8309 6.912 55.4229 6.912C56.0149 6.912 56.5349 7.064 56.9829 7.368C57.4469 7.656 57.7989 8.128 58.0389 8.784L63.7749 24H61.2549L59.7909 19.944H51.0069L49.5189 24H47.0949ZM51.7269 17.904H59.0949L56.0949 9.576C56.0149 9.368 55.9269 9.208 55.8309 9.096C55.7349 8.984 55.5989 8.928 55.4229 8.928C55.2629 8.928 55.1349 8.984 55.0389 9.096C54.9429 9.208 54.8629 9.368 54.7989 9.576L51.7269 17.904ZM76.5566 24.288C75.6606 24.288 74.8686 24.088 74.1806 23.688C73.5086 23.272 72.9806 22.712 72.5966 22.008C72.2126 21.304 72.0206 20.512 72.0206 19.632V11.256C72.0206 10.824 71.9166 10.432 71.7086 10.08C71.5006 9.728 71.2206 9.448 70.8686 9.24C70.5166 9.032 70.1326 8.928 69.7166 8.928C69.3006 8.928 68.9166 9.032 68.5646 9.24C68.2286 9.448 67.9566 9.728 67.7486 10.08C67.5566 10.432 67.4606 10.824 67.4606 11.256V24H65.1566V11.568C65.1566 10.688 65.3486 9.896 65.7326 9.192C66.1166 8.488 66.6526 7.936 67.3406 7.536C68.0286 7.12 68.8206 6.912 69.7166 6.912C70.6286 6.912 71.4286 7.12 72.1166 7.536C72.8046 7.936 73.3406 8.488 73.7246 9.192C74.1086 9.896 74.3006 10.688 74.3006 11.568V19.944C74.3006 20.376 74.4046 20.768 74.6126 21.12C74.8206 21.472 75.0926 21.752 75.4286 21.96C75.7806 22.168 76.1566 22.272 76.5566 22.272C76.9566 22.272 77.3246 22.168 77.6606 21.96C77.9966 21.752 78.2606 21.472 78.4526 21.12C78.6606 20.768 78.7646 20.376 78.7646 19.944V7.2H81.0686V19.632C81.0686 20.512 80.8766 21.304 80.4926 22.008C80.1086 22.712 79.5806 23.272 78.9086 23.688C78.2366 24.088 77.4526 24.288 76.5566 24.288ZM82.7902 24L88.5022 8.808C88.7582 8.152 89.1102 7.672 89.5582 7.368C90.0062 7.064 90.5262 6.912 91.1182 6.912C91.7102 6.912 92.2302 7.064 92.6782 7.368C93.1422 7.656 93.4942 8.128 93.7342 8.784L99.4702 24H96.9502L95.4862 19.944H86.7022L85.2142 24H82.7902ZM87.4222 17.904H94.7902L91.7902 9.576C91.7102 9.368 91.6222 9.208 91.5262 9.096C91.4302 8.984 91.2942 8.928 91.1182 8.928C90.9582 8.928 90.8302 8.984 90.7342 9.096C90.6382 9.208 90.5582 9.368 90.4942 9.576L87.4222 17.904ZM107.237 24C106.325 24 105.533 23.808 104.861 23.424C104.205 23.024 103.693 22.488 103.325 21.816C102.973 21.128 102.797 20.36 102.797 19.512V9.24H97.6848V7.2H110.213V9.24H105.101V19.8C105.101 20.424 105.293 20.944 105.677 21.36C106.077 21.76 106.605 21.96 107.261 21.96H108.365V24H107.237ZM109.861 24L115.573 8.808C115.829 8.152 116.181 7.672 116.629 7.368C117.077 7.064 117.597 6.912 118.189 6.912C118.781 6.912 119.301 7.064 119.749 7.368C120.213 7.656 120.565 8.128 120.805 8.784L126.541 24H124.021L122.557 19.944H113.773L112.285 24H109.861ZM114.493 17.904H121.861L118.861 9.576C118.781 9.368 118.693 9.208 118.597 9.096C118.501 8.984 118.365 8.928 118.189 8.928C118.029 8.928 117.901 8.984 117.805 9.096C117.709 9.208 117.629 9.368 117.565 9.576L114.493 17.904ZM135.179 24C133.899 24 132.731 23.784 131.675 23.352C130.619 22.904 129.707 22.296 128.939 21.528C128.187 20.76 127.603 19.872 127.187 18.864C126.787 17.84 126.587 16.752 126.587 15.6C126.587 14.448 126.787 13.368 127.187 12.36C127.603 11.336 128.187 10.44 128.939 9.672C129.707 8.904 130.619 8.304 131.675 7.872C132.731 7.424 133.899 7.2 135.179 7.2H137.339V9.24H135.251C134.339 9.24 133.499 9.4 132.731 9.72C131.963 10.04 131.291 10.488 130.715 11.064C130.155 11.64 129.715 12.312 129.395 13.08C129.075 13.848 128.915 14.688 128.915 15.6C128.915 16.496 129.075 17.336 129.395 18.12C129.715 18.888 130.155 19.56 130.715 20.136C131.291 20.712 131.963 21.16 132.731 21.48C133.499 21.8 134.339 21.96 135.251 21.96H137.339V24H135.179ZM140.019 24V7.2H142.323V14.76H146.691C147.363 14.76 147.979 14.64 148.539 14.4C149.099 14.144 149.539 13.776 149.859 13.296C150.195 12.8 150.363 12.216 150.363 11.544V7.2H152.643V11.52C152.643 12.624 152.363 13.584 151.803 14.4C151.243 15.2 150.499 15.808 149.571 16.224L151.755 21.216C151.867 21.472 152.003 21.664 152.163 21.792C152.323 21.904 152.547 21.96 152.835 21.96H154.035V24H152.475C151.771 24 151.187 23.848 150.723 23.544C150.275 23.224 149.923 22.784 149.667 22.224L147.267 16.752C147.075 16.768 146.891 16.784 146.715 16.8C146.539 16.8 146.347 16.8 146.139 16.8H142.323V24H140.019Z" fill="#E7EAEA"/>
</svg>
