<svg xmlns="http://www.w3.org/2000/svg" xmlns:xlink="http://www.w3.org/1999/xlink" width="500" zoomAndPan="magnify" viewBox="0 0 375 374.999991" height="500" preserveAspectRatio="xMidYMid meet" version="1.0"><defs><g/><clipPath id="e7a9bb6a89"><path d="M 294.574219 193.015625 L 322 193.015625 L 322 229.015625 L 294.574219 229.015625 Z M 294.574219 193.015625 " clip-rule="nonzero"/></clipPath><clipPath id="9ea1e6509b"><path d="M 321 193.015625 L 348.574219 193.015625 L 348.574219 229.015625 L 321 229.015625 Z M 321 193.015625 " clip-rule="nonzero"/></clipPath></defs><g fill="#ffffff" fill-opacity="1"><g transform="translate(37.719214, 172.683995)"><g><path d="M 5.03125 0 L 5.03125 -10.0625 L 71.34375 -10.0625 L 71.34375 -35.203125 L 81.40625 -35.203125 L 81.40625 -10.0625 L 86.484375 -10.0625 L 86.484375 0 C 84.628906 0 82.929688 -0.453125 81.390625 -1.359375 C 79.859375 -2.265625 78.640625 -3.476562 77.734375 -5 C 76.828125 -6.519531 76.375 -8.207031 76.375 -10.0625 C 76.375 -8.207031 75.921875 -6.519531 75.015625 -5 C 74.109375 -3.476562 72.894531 -2.265625 71.375 -1.359375 C 69.851562 -0.453125 68.164062 0 66.3125 0 Z M 48.328125 -14.84375 L 48.328125 -19.46875 L 57.5625 -19.46875 C 57.914062 -19.46875 58.207031 -19.582031 58.4375 -19.8125 C 58.675781 -20.050781 58.796875 -20.328125 58.796875 -20.640625 C 58.796875 -20.960938 58.675781 -21.25 58.4375 -21.5 C 58.207031 -21.757812 57.914062 -21.890625 57.5625 -21.890625 L 48.328125 -21.890625 L 48.328125 -26.203125 C 48.328125 -27.859375 48.632812 -29.179688 49.25 -30.171875 C 49.863281 -31.160156 50.648438 -31.867188 51.609375 -32.296875 C 52.578125 -32.734375 53.570312 -32.953125 54.59375 -32.953125 L 56.3125 -32.953125 L 56.3125 -28.75 L 54.59375 -28.75 C 54.082031 -28.75 53.609375 -28.550781 53.171875 -28.15625 C 52.742188 -27.757812 52.53125 -27.109375 52.53125 -26.203125 L 57.5625 -26.203125 C 59.175781 -26.203125 60.472656 -25.660156 61.453125 -24.578125 C 62.441406 -23.492188 62.9375 -22.144531 62.9375 -20.53125 C 62.9375 -18.914062 62.441406 -17.5625 61.453125 -16.46875 C 60.472656 -15.382812 59.175781 -14.84375 57.5625 -14.84375 Z M 48.328125 -14.84375 "/></g></g></g><g fill="#ffffff" fill-opacity="1"><g transform="translate(124.183551, 172.683995)"><g><path d="M 9.9375 -14.078125 L 2.90625 -21.171875 L 9.9375 -28.15625 L 16.984375 -21.171875 Z M 23.953125 -14.078125 L 16.984375 -21.171875 L 23.953125 -28.15625 L 31 -21.171875 Z M 0 0 L -4.96875 -10.0625 L 35.203125 -10.0625 L 35.203125 -18.109375 L 45.3125 -18.109375 L 45.3125 -10.0625 L 50.34375 -10.0625 L 50.34375 0 C 48.488281 0 46.789062 -0.453125 45.25 -1.359375 C 43.71875 -2.265625 42.492188 -3.476562 41.578125 -5 C 40.671875 -6.519531 40.21875 -8.207031 40.21875 -10.0625 C 40.21875 -8.207031 39.765625 -6.519531 38.859375 -5 C 37.953125 -3.476562 36.738281 -2.265625 35.21875 -1.359375 C 33.707031 -0.453125 32.023438 0 30.171875 0 Z M 0 0 "/></g></g></g><g fill="#ffffff" fill-opacity="1"><g transform="translate(174.512652, 172.683995)"><g><path d="M 35.375 -10.0625 L 60.34375 -10.0625 L 60.34375 0 L 38.28125 0 C 36.582031 0 35.03125 -0.363281 33.625 -1.09375 C 32.226562 -1.820312 31.078125 -2.796875 30.171875 -4.015625 C 29.265625 -2.796875 28.109375 -1.820312 26.703125 -1.09375 C 25.304688 -0.363281 23.78125 0 22.125 0 L 0 0 L -4.96875 -10.0625 L 24.96875 -10.0625 L 23.90625 -15.140625 L 5.03125 -15.140625 L 5.03125 -25.140625 L 22.125 -25.140625 C 23.78125 -25.140625 25.304688 -24.773438 26.703125 -24.046875 C 28.109375 -23.316406 29.265625 -22.359375 30.171875 -21.171875 C 31.078125 -22.359375 32.226562 -23.316406 33.625 -24.046875 C 35.03125 -24.773438 36.582031 -25.140625 38.28125 -25.140625 L 55.375 -25.140625 L 55.375 -15.140625 L 36.4375 -15.140625 Z M 35.375 -10.0625 "/></g></g></g><g fill="#ffffff" fill-opacity="1"><g transform="translate(234.8366, 172.683995)"><g><path d="M 17.6875 -14.078125 L 10.640625 -21.171875 L 17.6875 -28.15625 L 24.734375 -21.171875 Z M 0 0 L -4.96875 -10.0625 L 35.203125 -10.0625 L 35.203125 -18.109375 L 45.3125 -18.109375 L 45.3125 -10.0625 L 50.34375 -10.0625 L 50.34375 0 C 48.488281 0 46.789062 -0.453125 45.25 -1.359375 C 43.71875 -2.265625 42.492188 -3.476562 41.578125 -5 C 40.671875 -6.519531 40.21875 -8.207031 40.21875 -10.0625 C 40.21875 -8.207031 39.765625 -6.519531 38.859375 -5 C 37.953125 -3.476562 36.738281 -2.265625 35.21875 -1.359375 C 33.707031 -0.453125 32.023438 0 30.171875 0 Z M 0 0 "/></g></g></g><g fill="#ffffff" fill-opacity="1"><g transform="translate(285.165701, 172.683995)"><g><path d="M 0 0 L -4.96875 -10.0625 L 5.03125 -10.0625 L 5.03125 -16.09375 L 15.140625 -16.09375 L 15.140625 -10.0625 L 17.09375 -10.0625 C 17.09375 -13.019531 17.515625 -15.53125 18.359375 -17.59375 C 19.210938 -19.664062 20.347656 -21.332031 21.765625 -22.59375 C 23.191406 -23.851562 24.8125 -24.769531 26.625 -25.34375 C 28.4375 -25.914062 30.289062 -26.203125 32.1875 -26.203125 L 65.375 -26.203125 L 65.375 -10.0625 C 65.375 -8.207031 64.925781 -6.519531 64.03125 -5 C 63.144531 -3.476562 61.941406 -2.265625 60.421875 -1.359375 C 58.910156 -0.453125 57.226562 0 55.375 0 L 20.171875 0 C 18.316406 0 16.617188 -0.453125 15.078125 -1.359375 C 13.546875 -2.265625 12.328125 -3.476562 11.421875 -5 C 10.515625 -6.519531 10.0625 -8.207031 10.0625 -10.0625 C 10.0625 -8.207031 9.601562 -6.519531 8.6875 -5 C 7.78125 -3.476562 6.566406 -2.265625 5.046875 -1.359375 C 3.535156 -0.453125 1.851562 0 0 0 Z M 22.125 -10.0625 L 55.375 -10.0625 L 55.375 -16.09375 L 27.09375 -16.09375 C 25.832031 -16.09375 24.6875 -15.640625 23.65625 -14.734375 C 22.632812 -13.828125 22.125 -12.269531 22.125 -10.0625 Z M 22.125 -10.0625 "/></g></g></g><g fill="#ffffff" fill-opacity="1"><g transform="translate(19.435193, 228.117135)"><g><path d="M 30.234375 -11.71875 C 30.234375 -7.96875 28.878906 -4.976562 26.171875 -2.75 C 23.472656 -0.519531 19.640625 0.59375 14.671875 0.59375 C 10.210938 0.59375 6.226562 -0.253906 2.71875 -1.953125 L 2.71875 -10.296875 C 4.726562 -9.421875 6.804688 -8.617188 8.953125 -7.890625 C 11.109375 -7.160156 13.25 -6.796875 15.375 -6.796875 C 17.582031 -6.796875 19.148438 -7.21875 20.078125 -8.0625 C 21.003906 -8.914062 21.46875 -9.992188 21.46875 -11.296875 C 21.46875 -12.359375 21.101562 -13.265625 20.375 -14.015625 C 19.644531 -14.765625 18.671875 -15.460938 17.453125 -16.109375 C 16.234375 -16.765625 14.832031 -17.46875 13.25 -18.21875 C 12.257812 -18.695312 11.191406 -19.257812 10.046875 -19.90625 C 8.910156 -20.550781 7.816406 -21.359375 6.765625 -22.328125 C 5.722656 -23.296875 4.863281 -24.46875 4.1875 -25.84375 C 3.519531 -27.226562 3.1875 -28.890625 3.1875 -30.828125 C 3.1875 -34.609375 4.46875 -37.550781 7.03125 -39.65625 C 9.601562 -41.769531 13.097656 -42.828125 17.515625 -42.828125 C 19.722656 -42.828125 21.8125 -42.570312 23.78125 -42.0625 C 25.75 -41.550781 27.835938 -40.820312 30.046875 -39.875 L 27.15625 -32.890625 C 25.21875 -33.679688 23.476562 -34.289062 21.9375 -34.71875 C 20.40625 -35.15625 18.832031 -35.375 17.21875 -35.375 C 15.519531 -35.375 14.21875 -34.976562 13.3125 -34.1875 C 12.40625 -33.40625 11.953125 -32.378906 11.953125 -31.109375 C 11.953125 -29.617188 12.617188 -28.4375 13.953125 -27.5625 C 15.296875 -26.695312 17.289062 -25.632812 19.9375 -24.375 C 22.101562 -23.34375 23.945312 -22.273438 25.46875 -21.171875 C 26.988281 -20.066406 28.160156 -18.765625 28.984375 -17.265625 C 29.816406 -15.773438 30.234375 -13.925781 30.234375 -11.71875 Z M 30.234375 -11.71875 "/></g></g></g><g fill="#ffffff" fill-opacity="1"><g transform="translate(52.021947, 228.117135)"><g><path d="M 17.859375 -32.953125 C 22.203125 -32.953125 25.523438 -32.015625 27.828125 -30.140625 C 30.140625 -28.265625 31.296875 -25.394531 31.296875 -21.53125 L 31.296875 0 L 25.140625 0 L 23.421875 -4.375 L 23.1875 -4.375 C 21.8125 -2.644531 20.351562 -1.382812 18.8125 -0.59375 C 17.269531 0.195312 15.160156 0.59375 12.484375 0.59375 C 9.597656 0.59375 7.207031 -0.234375 5.3125 -1.890625 C 3.425781 -3.546875 2.484375 -6.128906 2.484375 -9.640625 C 2.484375 -13.066406 3.6875 -15.585938 6.09375 -17.203125 C 8.5 -18.828125 12.109375 -19.738281 16.921875 -19.9375 L 22.53125 -20.109375 L 22.53125 -21.53125 C 22.53125 -23.226562 22.085938 -24.46875 21.203125 -25.25 C 20.316406 -26.039062 19.085938 -26.4375 17.515625 -26.4375 C 15.929688 -26.4375 14.390625 -26.207031 12.890625 -25.75 C 11.390625 -25.300781 9.894531 -24.742188 8.40625 -24.078125 L 5.5 -30.046875 C 7.195312 -30.921875 9.109375 -31.625 11.234375 -32.15625 C 13.367188 -32.6875 15.578125 -32.953125 17.859375 -32.953125 Z M 22.53125 -14.96875 L 19.109375 -14.84375 C 16.265625 -14.769531 14.289062 -14.257812 13.1875 -13.3125 C 12.082031 -12.363281 11.53125 -11.117188 11.53125 -9.578125 C 11.53125 -8.242188 11.925781 -7.289062 12.71875 -6.71875 C 13.507812 -6.144531 14.535156 -5.859375 15.796875 -5.859375 C 17.691406 -5.859375 19.285156 -6.421875 20.578125 -7.546875 C 21.878906 -8.671875 22.53125 -10.253906 22.53125 -12.296875 Z M 22.53125 -14.96875 "/></g></g></g><g fill="#ffffff" fill-opacity="1"><g transform="translate(87.743194, 228.117135)"><g><path d="M 22.953125 -32.890625 C 26.421875 -32.890625 29.195312 -31.953125 31.28125 -30.078125 C 33.375 -28.203125 34.421875 -25.195312 34.421875 -21.0625 L 34.421875 0 L 25.609375 0 L 25.609375 -18.875 C 25.609375 -21.195312 25.191406 -22.9375 24.359375 -24.09375 C 23.535156 -25.257812 22.21875 -25.84375 20.40625 -25.84375 C 17.726562 -25.84375 15.894531 -24.925781 14.90625 -23.09375 C 13.914062 -21.257812 13.421875 -18.628906 13.421875 -15.203125 L 13.421875 0 L 4.609375 0 L 4.609375 -32.296875 L 11.359375 -32.296875 L 12.546875 -28.15625 L 13.015625 -28.15625 C 14.035156 -29.8125 15.441406 -31.015625 17.234375 -31.765625 C 19.035156 -32.515625 20.941406 -32.890625 22.953125 -32.890625 Z M 22.953125 -32.890625 "/></g></g></g><g fill="#ffffff" fill-opacity="1"><g transform="translate(126.598913, 228.117135)"><g><path d="M 17.859375 -32.953125 C 22.203125 -32.953125 25.523438 -32.015625 27.828125 -30.140625 C 30.140625 -28.265625 31.296875 -25.394531 31.296875 -21.53125 L 31.296875 0 L 25.140625 0 L 23.421875 -4.375 L 23.1875 -4.375 C 21.8125 -2.644531 20.351562 -1.382812 18.8125 -0.59375 C 17.269531 0.195312 15.160156 0.59375 12.484375 0.59375 C 9.597656 0.59375 7.207031 -0.234375 5.3125 -1.890625 C 3.425781 -3.546875 2.484375 -6.128906 2.484375 -9.640625 C 2.484375 -13.066406 3.6875 -15.585938 6.09375 -17.203125 C 8.5 -18.828125 12.109375 -19.738281 16.921875 -19.9375 L 22.53125 -20.109375 L 22.53125 -21.53125 C 22.53125 -23.226562 22.085938 -24.46875 21.203125 -25.25 C 20.316406 -26.039062 19.085938 -26.4375 17.515625 -26.4375 C 15.929688 -26.4375 14.390625 -26.207031 12.890625 -25.75 C 11.390625 -25.300781 9.894531 -24.742188 8.40625 -24.078125 L 5.5 -30.046875 C 7.195312 -30.921875 9.109375 -31.625 11.234375 -32.15625 C 13.367188 -32.6875 15.578125 -32.953125 17.859375 -32.953125 Z M 22.53125 -14.96875 L 19.109375 -14.84375 C 16.265625 -14.769531 14.289062 -14.257812 13.1875 -13.3125 C 12.082031 -12.363281 11.53125 -11.117188 11.53125 -9.578125 C 11.53125 -8.242188 11.925781 -7.289062 12.71875 -6.71875 C 13.507812 -6.144531 14.535156 -5.859375 15.796875 -5.859375 C 17.691406 -5.859375 19.285156 -6.421875 20.578125 -7.546875 C 21.878906 -8.671875 22.53125 -10.253906 22.53125 -12.296875 Z M 22.53125 -14.96875 "/></g></g></g><g fill="#ffffff" fill-opacity="1"><g transform="translate(162.32016, 228.117135)"><g><path d="M 18.21875 -6.453125 C 19.207031 -6.453125 20.15625 -6.539062 21.0625 -6.71875 C 21.96875 -6.894531 22.875 -7.140625 23.78125 -7.453125 L 23.78125 -0.890625 C 22.832031 -0.453125 21.65625 -0.0976562 20.25 0.171875 C 18.851562 0.453125 17.328125 0.59375 15.671875 0.59375 C 13.742188 0.59375 12.019531 0.28125 10.5 -0.34375 C 8.976562 -0.976562 7.773438 -2.066406 6.890625 -3.609375 C 6.003906 -5.148438 5.5625 -7.316406 5.5625 -10.109375 L 5.5625 -25.671875 L 1.359375 -25.671875 L 1.359375 -29.40625 L 6.21875 -32.359375 L 8.75 -39.15625 L 14.375 -39.15625 L 14.375 -32.296875 L 23.421875 -32.296875 L 23.421875 -25.671875 L 14.375 -25.671875 L 14.375 -10.109375 C 14.375 -8.890625 14.726562 -7.972656 15.4375 -7.359375 C 16.144531 -6.753906 17.070312 -6.453125 18.21875 -6.453125 Z M 18.21875 -6.453125 "/></g></g></g><g fill="#ffffff" fill-opacity="1"><g transform="translate(187.987408, 228.117135)"><g><path d="M 17.859375 -32.953125 C 22.203125 -32.953125 25.523438 -32.015625 27.828125 -30.140625 C 30.140625 -28.265625 31.296875 -25.394531 31.296875 -21.53125 L 31.296875 0 L 25.140625 0 L 23.421875 -4.375 L 23.1875 -4.375 C 21.8125 -2.644531 20.351562 -1.382812 18.8125 -0.59375 C 17.269531 0.195312 15.160156 0.59375 12.484375 0.59375 C 9.597656 0.59375 7.207031 -0.234375 5.3125 -1.890625 C 3.425781 -3.546875 2.484375 -6.128906 2.484375 -9.640625 C 2.484375 -13.066406 3.6875 -15.585938 6.09375 -17.203125 C 8.5 -18.828125 12.109375 -19.738281 16.921875 -19.9375 L 22.53125 -20.109375 L 22.53125 -21.53125 C 22.53125 -23.226562 22.085938 -24.46875 21.203125 -25.25 C 20.316406 -26.039062 19.085938 -26.4375 17.515625 -26.4375 C 15.929688 -26.4375 14.390625 -26.207031 12.890625 -25.75 C 11.390625 -25.300781 9.894531 -24.742188 8.40625 -24.078125 L 5.5 -30.046875 C 7.195312 -30.921875 9.109375 -31.625 11.234375 -32.15625 C 13.367188 -32.6875 15.578125 -32.953125 17.859375 -32.953125 Z M 22.53125 -14.96875 L 19.109375 -14.84375 C 16.265625 -14.769531 14.289062 -14.257812 13.1875 -13.3125 C 12.082031 -12.363281 11.53125 -11.117188 11.53125 -9.578125 C 11.53125 -8.242188 11.925781 -7.289062 12.71875 -6.71875 C 13.507812 -6.144531 14.535156 -5.859375 15.796875 -5.859375 C 17.691406 -5.859375 19.285156 -6.421875 20.578125 -7.546875 C 21.878906 -8.671875 22.53125 -10.253906 22.53125 -12.296875 Z M 22.53125 -14.96875 "/></g></g></g><g fill="#ffffff" fill-opacity="1"><g transform="translate(223.708655, 228.117135)"><g><path d="M 17.75 0.59375 C 12.9375 0.59375 9.21875 -0.722656 6.59375 -3.359375 C 3.96875 -6.003906 2.65625 -10.207031 2.65625 -15.96875 C 2.65625 -19.914062 3.328125 -23.128906 4.671875 -25.609375 C 6.015625 -28.097656 7.878906 -29.929688 10.265625 -31.109375 C 12.648438 -32.296875 15.398438 -32.890625 18.515625 -32.890625 C 20.722656 -32.890625 22.644531 -32.671875 24.28125 -32.234375 C 25.914062 -31.804688 27.347656 -31.296875 28.578125 -30.703125 L 25.96875 -23.90625 C 24.59375 -24.457031 23.300781 -24.910156 22.09375 -25.265625 C 20.894531 -25.617188 19.703125 -25.796875 18.515625 -25.796875 C 13.941406 -25.796875 11.65625 -22.539062 11.65625 -16.03125 C 11.65625 -12.800781 12.253906 -10.414062 13.453125 -8.875 C 14.660156 -7.332031 16.347656 -6.5625 18.515625 -6.5625 C 20.367188 -6.5625 22.003906 -6.804688 23.421875 -7.296875 C 24.847656 -7.796875 26.226562 -8.476562 27.5625 -9.34375 L 27.5625 -1.828125 C 26.226562 -0.960938 24.820312 -0.34375 23.34375 0.03125 C 21.863281 0.40625 20 0.59375 17.75 0.59375 Z M 17.75 0.59375 "/></g></g></g><g fill="#ffffff" fill-opacity="1"><g transform="translate(254.107199, 228.117135)"><g><path d="M 13.421875 -44.953125 L 13.421875 -24.84375 C 13.421875 -23.625 13.367188 -22.410156 13.265625 -21.203125 C 13.171875 -20.003906 13.066406 -18.789062 12.953125 -17.5625 L 13.078125 -17.5625 C 13.660156 -18.394531 14.269531 -19.222656 14.90625 -20.046875 C 15.539062 -20.878906 16.210938 -21.691406 16.921875 -22.484375 L 25.96875 -32.296875 L 35.90625 -32.296875 L 23.078125 -18.28125 L 36.671875 0 L 26.5 0 L 17.21875 -13.078125 L 13.421875 -10.0625 L 13.421875 0 L 4.609375 0 L 4.609375 -44.953125 Z M 13.421875 -44.953125 "/></g></g></g><g clip-path="url(#e7a9bb6a89)"><path fill="#ffffff" d="M 321.640625 202.0625 L 312.617188 193.03125 L 294.574219 211.085938 L 312.617188 229.128906 L 321.640625 220.105469 L 312.617188 211.085938 Z M 321.640625 202.0625 " fill-opacity="1" fill-rule="nonzero"/></g><g clip-path="url(#9ea1e6509b)"><path fill="#ffffff" d="M 330.664062 193.03125 L 321.640625 202.0625 L 330.664062 211.085938 L 321.640625 220.105469 L 330.664062 229.128906 L 348.714844 211.085938 Z M 330.664062 193.03125 " fill-opacity="1" fill-rule="nonzero"/></g></svg>