<svg width="332" height="631" viewBox="0 0 332 631" fill="none" xmlns="http://www.w3.org/2000/svg">
<path d="M428.371 618.717C154.772 365.084 -191.982 -78.6945 609.799 175.253L428.371 618.717Z" fill="white"/>
<path d="M530.705 624.222C257.106 370.589 -114.872 -11.5349 686.909 242.412L530.705 624.222Z" fill="#161616"/>
<path d="M625.844 635.404C346.021 396.982 -36.0552 39.5415 762.473 301.441L625.844 635.404Z" fill="white"/>
<path d="M579.838 553.606C404.469 391.763 165.986 147.992 679.157 310.84L579.838 553.606Z" fill="#161616"/>
<circle cx="247.429" cy="185.945" r="1.38781" transform="rotate(-157.75 247.429 185.945)" fill="white"/>
<circle cx="163.143" cy="417.618" r="1.38781" transform="rotate(-157.75 163.143 417.618)" fill="white"/>
<circle cx="1.04086" cy="1.04086" r="1.04086" transform="matrix(0.925539 0.378652 0.378652 -0.925539 217.711 146.797)" fill="#161616"/>
<circle cx="12.1433" cy="12.1433" r="12.1433" transform="matrix(0.925539 0.378652 0.378652 -0.925539 251.332 509.927)" fill="white"/>
<circle cx="17.6946" cy="17.6946" r="17.6946" transform="matrix(0.997624 0.0688874 0.0688874 -0.997624 215.918 312.492)" fill="white"/>
<path d="M233.571 313.711C223.821 313.038 216.444 304.877 217.137 294.84C217.485 289.793 218.856 286.573 222.473 283.036C222.306 285.459 240.243 312.781 240.243 312.781C240.243 312.781 238.762 314.07 233.571 313.711Z" fill="#161616"/>
<circle cx="1.73476" cy="1.73476" r="1.73476" transform="matrix(0.925539 0.378652 0.378652 -0.925539 320.467 254.812)" fill="#161616"/>
<circle cx="2.42867" cy="2.42867" r="2.42867" transform="matrix(0.925539 0.378652 0.378652 -0.925539 327.031 453.178)" fill="#161616"/>
<rect width="1.04968" height="1.04968" rx="0.265094" transform="matrix(0.685846 0.727746 0.727746 -0.685846 295.746 359.215)" fill="white"/>
<rect width="1.82677" height="1.82677" rx="0.481997" transform="matrix(0.974149 -0.225906 -0.225906 -0.974149 186.107 280.416)" fill="#161616"/>
<rect width="2.17432" height="2.17432" rx="0.619105" transform="matrix(0.989766 -0.142699 -0.142699 -0.989766 295.18 150.803)" fill="#161616"/>
<path d="M239.418 236.378C239.63 236.202 239.705 235.911 239.604 235.655L239.17 234.558C239.069 234.302 238.814 234.141 238.54 234.158L237.363 234.232C237.088 234.249 236.856 234.441 236.788 234.707L236.494 235.849C236.425 236.116 236.536 236.396 236.769 236.543L237.764 237.176C237.996 237.323 238.297 237.304 238.509 237.129L239.418 236.378Z" fill="white"/>
<path d="M248.828 438.046C249.082 438.152 249.376 438.082 249.554 437.872L250.321 436.976C250.499 436.767 250.523 436.467 250.38 436.232L249.764 435.226C249.62 434.992 249.342 434.876 249.074 434.94L247.928 435.215C247.66 435.279 247.464 435.508 247.443 435.782L247.349 436.958C247.328 437.232 247.485 437.489 247.739 437.595L248.828 438.046Z" fill="white"/>
</svg>
