<svg width="95" height="96" viewBox="0 0 95 96" fill="none" xmlns="http://www.w3.org/2000/svg">
<path d="M81.3976 44.7931L50.5121 13.3579C48.735 11.5474 45.8504 11.5474 44.0711 13.3579L37.6581 19.8865L45.7928 28.167C47.6839 27.5171 49.8516 27.9529 51.3583 29.4869C52.8729 31.0305 53.2979 33.2558 52.6434 35.1873L60.4838 43.1682C62.3807 42.5029 64.5692 42.9327 66.0838 44.4772C68.2014 46.6321 68.2014 50.1239 66.0838 52.2793C63.9659 54.4355 60.5357 54.4355 58.4166 52.2793C56.8244 50.6573 56.4306 48.2759 57.237 46.279L49.9249 38.8358L49.9243 58.4223C50.4406 58.6824 50.9278 59.0296 51.358 59.4657C53.4749 61.6203 53.4749 65.1114 51.358 67.2697C49.2404 69.4242 45.8086 69.4242 43.6933 67.2697C41.576 65.1116 41.576 61.6205 43.6933 59.4657C44.2165 58.934 44.822 58.5316 45.468 58.2618V38.4934C44.8216 38.2248 44.2169 37.8253 43.6929 37.2894C42.0892 35.6582 41.7029 33.2623 42.5254 31.2576L34.5062 23.0934L13.3305 44.6479C11.5513 46.4598 11.5513 49.3961 13.3305 51.2068L44.2142 82.6421C45.9922 84.4526 48.8758 84.4526 50.6564 82.6421L81.3972 51.3553C83.1759 49.5439 83.1759 46.6067 81.3972 44.7958" fill="black" fill-opacity="0.2"/>
</svg>
