<svg width="96" height="96" viewBox="0 0 96 96" fill="none" xmlns="http://www.w3.org/2000/svg">
<path d="M15.0294 42.0209C14.8789 42.0209 14.8413 41.9443 14.9165 41.8294L15.7069 40.7951C15.7822 40.6801 15.9703 40.6035 16.1209 40.6035H29.5568C29.7073 40.6035 29.7449 40.7184 29.6697 40.8334L29.0299 41.8294C28.9546 41.9443 28.7664 42.0592 28.6535 42.0592L15.0294 42.0209Z" fill="black" fill-opacity="0.2"/>
<path d="M9.34586 45.5451C9.19531 45.5451 9.15768 45.4685 9.23295 45.3536L10.0233 44.3192C10.0986 44.2043 10.2867 44.1277 10.4373 44.1277H27.5991C27.7496 44.1277 27.8249 44.2426 27.7873 44.3575L27.4862 45.2769C27.4486 45.4302 27.298 45.5068 27.1475 45.5068L9.34586 45.5451Z" fill="black" fill-opacity="0.2"/>
<path d="M18.4533 49.0698C18.3027 49.0698 18.2651 48.9548 18.3404 48.8399L18.8673 47.8822C18.9425 47.7673 19.0931 47.6523 19.2436 47.6523H26.7707C26.9213 47.6523 26.9965 47.7673 26.9965 47.9205L26.9213 48.8399C26.9213 48.9931 26.7707 49.1081 26.6578 49.1081L18.4533 49.0698Z" fill="black" fill-opacity="0.2"/>
<path d="M57.5199 41.3313C55.1489 41.9442 53.5306 42.4039 51.1972 43.0169C50.6326 43.1701 50.595 43.2084 50.1057 42.6338C49.5412 41.9825 49.1272 41.5611 48.3369 41.1781C45.9658 39.9905 43.6701 40.3353 41.5248 41.7527C38.9656 43.4383 37.6484 45.9283 37.686 49.0313C37.7236 52.096 39.7936 54.6244 42.7668 55.0457C45.326 55.3905 47.4713 54.4711 49.1649 52.5174C49.5036 52.096 49.8047 51.6363 50.181 51.1C48.8261 51.1 47.1325 51.1 42.9174 51.1C42.127 51.1 41.9388 50.602 42.2023 49.9507C42.6915 48.7631 43.5948 46.7711 44.1217 45.7751C44.2346 45.5452 44.498 45.1621 45.0626 45.1621C46.982 45.1621 54.0575 45.1621 58.7619 45.1621C58.6866 46.1965 58.6866 47.2308 58.5361 48.2651C58.1221 51.0233 57.106 53.5517 55.45 55.7736C52.7402 59.4129 49.2025 61.6731 44.7239 62.2861C41.0356 62.7841 37.6107 62.0562 34.5999 59.7577C31.8149 57.6124 30.2342 54.7776 29.8202 51.2532C29.3309 47.0776 30.5353 43.3233 33.0192 40.0288C35.6913 36.4661 39.2291 34.2059 43.5572 33.4014C47.0949 32.7502 50.4821 33.1716 53.5306 35.2785C55.5253 36.6193 56.9554 38.4582 57.8963 40.68C58.1221 41.0248 57.9716 41.2164 57.5199 41.3313Z" fill="black" fill-opacity="0.2"/>
<path d="M69.9783 62.5159C66.5534 62.4393 63.4297 61.4433 60.7952 59.1448C58.5747 57.191 57.1822 54.701 56.7306 51.7512C56.0531 47.4224 57.2198 43.5915 59.779 40.182C62.5264 36.5044 65.8384 34.589 70.317 33.7845C74.1558 33.095 77.7688 33.478 81.0431 35.7383C84.0163 37.8069 85.8605 40.6034 86.3497 44.2811C86.9895 49.4527 85.5218 53.6666 82.0216 57.2676C79.5377 59.8343 76.4892 61.4433 72.9891 62.1711C71.973 62.3627 70.9568 62.401 69.9783 62.5159ZM78.9355 47.0393C78.8979 46.5413 78.8979 46.1582 78.8226 45.7751C78.1452 41.9825 74.7204 39.8373 71.145 40.6801C67.6449 41.4845 65.3867 43.7447 64.5588 47.3457C63.8813 50.3338 65.3115 53.3602 68.0212 54.586C70.0912 55.5054 72.1611 55.3905 74.1558 54.3562C77.129 52.7855 78.7474 50.3338 78.9355 47.0393Z" fill="black" fill-opacity="0.2"/>
</svg>
