<svg width="63" height="53" viewBox="0 0 63 53" fill="none" xmlns="http://www.w3.org/2000/svg">
<path d="M39.2679 37.1817C41.1677 40.8607 43.6393 43.5649 48.0107 43.5649C51.6829 43.5649 54.0288 41.388 54.0288 38.3802C54.0288 34.7758 51.6185 33.4991 47.5765 31.4022L45.3609 30.2747C38.9655 27.0431 34.7169 22.9948 34.7169 14.4365C34.7169 6.55296 39.7814 0.551514 47.6963 0.551514C53.3311 0.551514 57.3821 2.87752 60.3014 8.96775L53.4 14.2235C51.8805 10.9919 50.2413 9.71881 47.6963 9.71881C45.1004 9.71881 43.4552 11.672 43.4552 14.2235C43.4552 17.3769 45.1019 18.6535 48.9044 20.6066L51.12 21.7324C58.6501 25.5623 62.9017 29.4668 62.9017 38.2452C62.9017 47.7091 56.6336 52.8937 48.2158 52.8937C39.985 52.8937 34.6675 48.2417 32.0657 42.1444L39.2679 37.1817ZM7.96033 38.0925C9.35258 41.0222 10.6191 43.4992 13.6641 43.4992C16.5758 43.4992 18.4127 42.1479 18.4127 36.894V1.15165H27.2752V37.0361C27.2752 47.9203 21.8948 52.8742 14.0413 52.8742C6.94534 52.8742 2.83596 48.5187 0.746094 43.2728L7.96033 38.0925Z" fill="black" fill-opacity="0.2"/>
</svg>
