<svg xmlns="http://www.w3.org/2000/svg" xmlns:xlink="http://www.w3.org/1999/xlink" width="500" zoomAndPan="magnify" viewBox="0 0 375 374.999991" height="500" preserveAspectRatio="xMidYMid meet" version="1.0"><defs><g/><clipPath id="30f5781f0b"><path d="M 290.429688 184.640625 L 326 184.640625 L 326 231 L 290.429688 231 Z M 290.429688 184.640625 " clip-rule="nonzero"/></clipPath><clipPath id="bcaf1b50a7"><path d="M 325 184.640625 L 360 184.640625 L 360 231 L 325 231 Z M 325 184.640625 " clip-rule="nonzero"/></clipPath></defs><g fill="#162029" fill-opacity="1"><g transform="translate(32.720748, 176.529479)"><g><path d="M 5.03125 0 L 5.03125 -10.0625 L 71.34375 -10.0625 L 71.34375 -35.203125 L 81.40625 -35.203125 L 81.40625 -10.0625 L 86.484375 -10.0625 L 86.484375 0 C 84.628906 0 82.929688 -0.453125 81.390625 -1.359375 C 79.859375 -2.265625 78.640625 -3.476562 77.734375 -5 C 76.828125 -6.519531 76.375 -8.207031 76.375 -10.0625 C 76.375 -8.207031 75.921875 -6.519531 75.015625 -5 C 74.109375 -3.476562 72.894531 -2.265625 71.375 -1.359375 C 69.851562 -0.453125 68.164062 0 66.3125 0 Z M 48.328125 -14.84375 L 48.328125 -19.46875 L 57.5625 -19.46875 C 57.914062 -19.46875 58.207031 -19.582031 58.4375 -19.8125 C 58.675781 -20.050781 58.796875 -20.328125 58.796875 -20.640625 C 58.796875 -20.960938 58.675781 -21.25 58.4375 -21.5 C 58.207031 -21.757812 57.914062 -21.890625 57.5625 -21.890625 L 48.328125 -21.890625 L 48.328125 -26.203125 C 48.328125 -27.859375 48.632812 -29.179688 49.25 -30.171875 C 49.863281 -31.160156 50.648438 -31.867188 51.609375 -32.296875 C 52.578125 -32.734375 53.570312 -32.953125 54.59375 -32.953125 L 56.3125 -32.953125 L 56.3125 -28.75 L 54.59375 -28.75 C 54.082031 -28.75 53.609375 -28.550781 53.171875 -28.15625 C 52.742188 -27.757812 52.53125 -27.109375 52.53125 -26.203125 L 57.5625 -26.203125 C 59.175781 -26.203125 60.472656 -25.660156 61.453125 -24.578125 C 62.441406 -23.492188 62.9375 -22.144531 62.9375 -20.53125 C 62.9375 -18.914062 62.441406 -17.5625 61.453125 -16.46875 C 60.472656 -15.382812 59.175781 -14.84375 57.5625 -14.84375 Z M 48.328125 -14.84375 "/></g></g></g><g fill="#162029" fill-opacity="1"><g transform="translate(119.185085, 176.529479)"><g><path d="M 9.9375 -14.078125 L 2.90625 -21.171875 L 9.9375 -28.15625 L 16.984375 -21.171875 Z M 23.953125 -14.078125 L 16.984375 -21.171875 L 23.953125 -28.15625 L 31 -21.171875 Z M 0 0 L -4.96875 -10.0625 L 35.203125 -10.0625 L 35.203125 -18.109375 L 45.3125 -18.109375 L 45.3125 -10.0625 L 50.34375 -10.0625 L 50.34375 0 C 48.488281 0 46.789062 -0.453125 45.25 -1.359375 C 43.71875 -2.265625 42.492188 -3.476562 41.578125 -5 C 40.671875 -6.519531 40.21875 -8.207031 40.21875 -10.0625 C 40.21875 -8.207031 39.765625 -6.519531 38.859375 -5 C 37.953125 -3.476562 36.738281 -2.265625 35.21875 -1.359375 C 33.707031 -0.453125 32.023438 0 30.171875 0 Z M 0 0 "/></g></g></g><g fill="#162029" fill-opacity="1"><g transform="translate(169.514187, 176.529479)"><g><path d="M 35.375 -10.0625 L 60.34375 -10.0625 L 60.34375 0 L 38.28125 0 C 36.582031 0 35.03125 -0.363281 33.625 -1.09375 C 32.226562 -1.820312 31.078125 -2.796875 30.171875 -4.015625 C 29.265625 -2.796875 28.109375 -1.820312 26.703125 -1.09375 C 25.304688 -0.363281 23.78125 0 22.125 0 L 0 0 L -4.96875 -10.0625 L 24.96875 -10.0625 L 23.90625 -15.140625 L 5.03125 -15.140625 L 5.03125 -25.140625 L 22.125 -25.140625 C 23.78125 -25.140625 25.304688 -24.773438 26.703125 -24.046875 C 28.109375 -23.316406 29.265625 -22.359375 30.171875 -21.171875 C 31.078125 -22.359375 32.226562 -23.316406 33.625 -24.046875 C 35.03125 -24.773438 36.582031 -25.140625 38.28125 -25.140625 L 55.375 -25.140625 L 55.375 -15.140625 L 36.4375 -15.140625 Z M 35.375 -10.0625 "/></g></g></g><g fill="#162029" fill-opacity="1"><g transform="translate(229.838134, 176.529479)"><g><path d="M 17.6875 -14.078125 L 10.640625 -21.171875 L 17.6875 -28.15625 L 24.734375 -21.171875 Z M 0 0 L -4.96875 -10.0625 L 35.203125 -10.0625 L 35.203125 -18.109375 L 45.3125 -18.109375 L 45.3125 -10.0625 L 50.34375 -10.0625 L 50.34375 0 C 48.488281 0 46.789062 -0.453125 45.25 -1.359375 C 43.71875 -2.265625 42.492188 -3.476562 41.578125 -5 C 40.671875 -6.519531 40.21875 -8.207031 40.21875 -10.0625 C 40.21875 -8.207031 39.765625 -6.519531 38.859375 -5 C 37.953125 -3.476562 36.738281 -2.265625 35.21875 -1.359375 C 33.707031 -0.453125 32.023438 0 30.171875 0 Z M 0 0 "/></g></g></g><g fill="#162029" fill-opacity="1"><g transform="translate(280.167235, 176.529479)"><g><path d="M 0 0 L -4.96875 -10.0625 L 5.03125 -10.0625 L 5.03125 -16.09375 L 15.140625 -16.09375 L 15.140625 -10.0625 L 17.09375 -10.0625 C 17.09375 -13.019531 17.515625 -15.53125 18.359375 -17.59375 C 19.210938 -19.664062 20.347656 -21.332031 21.765625 -22.59375 C 23.191406 -23.851562 24.8125 -24.769531 26.625 -25.34375 C 28.4375 -25.914062 30.289062 -26.203125 32.1875 -26.203125 L 65.375 -26.203125 L 65.375 -10.0625 C 65.375 -8.207031 64.925781 -6.519531 64.03125 -5 C 63.144531 -3.476562 61.941406 -2.265625 60.421875 -1.359375 C 58.910156 -0.453125 57.226562 0 55.375 0 L 20.171875 0 C 18.316406 0 16.617188 -0.453125 15.078125 -1.359375 C 13.546875 -2.265625 12.328125 -3.476562 11.421875 -5 C 10.515625 -6.519531 10.0625 -8.207031 10.0625 -10.0625 C 10.0625 -8.207031 9.601562 -6.519531 8.6875 -5 C 7.78125 -3.476562 6.566406 -2.265625 5.046875 -1.359375 C 3.535156 -0.453125 1.851562 0 0 0 Z M 22.125 -10.0625 L 55.375 -10.0625 L 55.375 -16.09375 L 27.09375 -16.09375 C 25.832031 -16.09375 24.6875 -15.640625 23.65625 -14.734375 C 22.632812 -13.828125 22.125 -12.269531 22.125 -10.0625 Z M 22.125 -10.0625 "/></g></g></g><g fill="#162029" fill-opacity="1"><g transform="translate(31.751534, 225.37914)"><g><path d="M 28.734375 -11.140625 C 28.734375 -7.578125 27.445312 -4.734375 24.875 -2.609375 C 22.3125 -0.492188 18.671875 0.5625 13.953125 0.5625 C 9.710938 0.5625 5.925781 -0.242188 2.59375 -1.859375 L 2.59375 -9.78125 C 4.5 -8.957031 6.472656 -8.195312 8.515625 -7.5 C 10.554688 -6.8125 12.59375 -6.46875 14.625 -6.46875 C 16.71875 -6.46875 18.203125 -6.867188 19.078125 -7.671875 C 19.960938 -8.484375 20.40625 -9.503906 20.40625 -10.734375 C 20.40625 -11.753906 20.054688 -12.617188 19.359375 -13.328125 C 18.671875 -14.035156 17.742188 -14.695312 16.578125 -15.3125 C 15.421875 -15.9375 14.09375 -16.601562 12.59375 -17.3125 C 11.65625 -17.769531 10.640625 -18.304688 9.546875 -18.921875 C 8.460938 -19.535156 7.425781 -20.300781 6.4375 -21.21875 C 5.445312 -22.144531 4.628906 -23.265625 3.984375 -24.578125 C 3.347656 -25.890625 3.03125 -27.460938 3.03125 -29.296875 C 3.03125 -32.898438 4.25 -35.703125 6.6875 -37.703125 C 9.125 -39.710938 12.441406 -40.71875 16.640625 -40.71875 C 18.742188 -40.71875 20.734375 -40.472656 22.609375 -39.984375 C 24.484375 -39.492188 26.46875 -38.800781 28.5625 -37.90625 L 25.8125 -31.265625 C 23.976562 -32.015625 22.328125 -32.59375 20.859375 -33 C 19.398438 -33.414062 17.898438 -33.625 16.359375 -33.625 C 14.753906 -33.625 13.519531 -33.25 12.65625 -32.5 C 11.789062 -31.75 11.359375 -30.773438 11.359375 -29.578125 C 11.359375 -28.148438 11.992188 -27.023438 13.265625 -26.203125 C 14.546875 -25.378906 16.441406 -24.367188 18.953125 -23.171875 C 21.015625 -22.191406 22.765625 -21.175781 24.203125 -20.125 C 25.648438 -19.082031 26.765625 -17.847656 27.546875 -16.421875 C 28.335938 -14.992188 28.734375 -13.234375 28.734375 -11.140625 Z M 28.734375 -11.140625 "/></g></g></g><g fill="#162029" fill-opacity="1"><g transform="translate(62.731792, 225.37914)"><g><path d="M 16.984375 -31.328125 C 21.109375 -31.328125 24.265625 -30.4375 26.453125 -28.65625 C 28.648438 -26.875 29.75 -24.144531 29.75 -20.46875 L 29.75 0 L 23.90625 0 L 22.265625 -4.15625 L 22.046875 -4.15625 C 20.734375 -2.507812 19.34375 -1.3125 17.875 -0.5625 C 16.414062 0.1875 14.410156 0.5625 11.859375 0.5625 C 9.128906 0.5625 6.863281 -0.222656 5.0625 -1.796875 C 3.257812 -3.367188 2.359375 -5.828125 2.359375 -9.171875 C 2.359375 -12.429688 3.5 -14.828125 5.78125 -16.359375 C 8.070312 -17.898438 11.503906 -18.765625 16.078125 -18.953125 L 21.421875 -19.125 L 21.421875 -20.46875 C 21.421875 -22.082031 21 -23.265625 20.15625 -24.015625 C 19.3125 -24.765625 18.140625 -25.140625 16.640625 -25.140625 C 15.140625 -25.140625 13.675781 -24.921875 12.25 -24.484375 C 10.832031 -24.054688 9.410156 -23.523438 7.984375 -22.890625 L 5.234375 -28.5625 C 6.835938 -29.382812 8.648438 -30.050781 10.671875 -30.5625 C 12.703125 -31.070312 14.804688 -31.328125 16.984375 -31.328125 Z M 21.421875 -14.234375 L 18.15625 -14.109375 C 15.457031 -14.035156 13.582031 -13.546875 12.53125 -12.640625 C 11.488281 -11.742188 10.96875 -10.566406 10.96875 -9.109375 C 10.96875 -7.835938 11.34375 -6.925781 12.09375 -6.375 C 12.84375 -5.832031 13.816406 -5.5625 15.015625 -5.5625 C 16.816406 -5.5625 18.332031 -6.09375 19.5625 -7.15625 C 20.800781 -8.226562 21.421875 -9.742188 21.421875 -11.703125 Z M 21.421875 -14.234375 "/></g></g></g><g fill="#162029" fill-opacity="1"><g transform="translate(96.692014, 225.37914)"><g><path d="M 21.8125 -31.265625 C 25.113281 -31.265625 27.757812 -30.375 29.75 -28.59375 C 31.738281 -26.8125 32.734375 -23.953125 32.734375 -20.015625 L 32.734375 0 L 24.34375 0 L 24.34375 -17.9375 C 24.34375 -20.144531 23.945312 -21.800781 23.15625 -22.90625 C 22.375 -24.019531 21.125 -24.578125 19.40625 -24.578125 C 16.851562 -24.578125 15.109375 -23.703125 14.171875 -21.953125 C 13.234375 -20.210938 12.765625 -17.710938 12.765625 -14.453125 L 12.765625 0 L 4.390625 0 L 4.390625 -30.703125 L 10.796875 -30.703125 L 11.921875 -26.765625 L 12.375 -26.765625 C 13.34375 -28.335938 14.679688 -29.476562 16.390625 -30.1875 C 18.097656 -30.90625 19.90625 -31.265625 21.8125 -31.265625 Z M 21.8125 -31.265625 "/></g></g></g><g fill="#162029" fill-opacity="1"><g transform="translate(133.632182, 225.37914)"><g><path d="M 16.984375 -31.328125 C 21.109375 -31.328125 24.265625 -30.4375 26.453125 -28.65625 C 28.648438 -26.875 29.75 -24.144531 29.75 -20.46875 L 29.75 0 L 23.90625 0 L 22.265625 -4.15625 L 22.046875 -4.15625 C 20.734375 -2.507812 19.34375 -1.3125 17.875 -0.5625 C 16.414062 0.1875 14.410156 0.5625 11.859375 0.5625 C 9.128906 0.5625 6.863281 -0.222656 5.0625 -1.796875 C 3.257812 -3.367188 2.359375 -5.828125 2.359375 -9.171875 C 2.359375 -12.429688 3.5 -14.828125 5.78125 -16.359375 C 8.070312 -17.898438 11.503906 -18.765625 16.078125 -18.953125 L 21.421875 -19.125 L 21.421875 -20.46875 C 21.421875 -22.082031 21 -23.265625 20.15625 -24.015625 C 19.3125 -24.765625 18.140625 -25.140625 16.640625 -25.140625 C 15.140625 -25.140625 13.675781 -24.921875 12.25 -24.484375 C 10.832031 -24.054688 9.410156 -23.523438 7.984375 -22.890625 L 5.234375 -28.5625 C 6.835938 -29.382812 8.648438 -30.050781 10.671875 -30.5625 C 12.703125 -31.070312 14.804688 -31.328125 16.984375 -31.328125 Z M 21.421875 -14.234375 L 18.15625 -14.109375 C 15.457031 -14.035156 13.582031 -13.546875 12.53125 -12.640625 C 11.488281 -11.742188 10.96875 -10.566406 10.96875 -9.109375 C 10.96875 -7.835938 11.34375 -6.925781 12.09375 -6.375 C 12.84375 -5.832031 13.816406 -5.5625 15.015625 -5.5625 C 16.816406 -5.5625 18.332031 -6.09375 19.5625 -7.15625 C 20.800781 -8.226562 21.421875 -9.742188 21.421875 -11.703125 Z M 21.421875 -14.234375 "/></g></g></g><g fill="#162029" fill-opacity="1"><g transform="translate(167.592404, 225.37914)"><g><path d="M 17.3125 -6.125 C 18.25 -6.125 19.148438 -6.207031 20.015625 -6.375 C 20.878906 -6.550781 21.742188 -6.785156 22.609375 -7.078125 L 22.609375 -0.84375 C 21.703125 -0.425781 20.582031 -0.0859375 19.25 0.171875 C 17.925781 0.429688 16.476562 0.5625 14.90625 0.5625 C 13.0625 0.5625 11.414062 0.265625 9.96875 -0.328125 C 8.53125 -0.929688 7.390625 -1.960938 6.546875 -3.421875 C 5.703125 -4.890625 5.28125 -6.953125 5.28125 -9.609375 L 5.28125 -24.40625 L 1.296875 -24.40625 L 1.296875 -27.953125 L 5.90625 -30.765625 L 8.328125 -37.234375 L 13.671875 -37.234375 L 13.671875 -30.703125 L 22.265625 -30.703125 L 22.265625 -24.40625 L 13.671875 -24.40625 L 13.671875 -9.609375 C 13.671875 -8.453125 14.003906 -7.582031 14.671875 -7 C 15.347656 -6.414062 16.226562 -6.125 17.3125 -6.125 Z M 17.3125 -6.125 "/></g></g></g><g fill="#162029" fill-opacity="1"><g transform="translate(191.994281, 225.37914)"><g><path d="M 16.984375 -31.328125 C 21.109375 -31.328125 24.265625 -30.4375 26.453125 -28.65625 C 28.648438 -26.875 29.75 -24.144531 29.75 -20.46875 L 29.75 0 L 23.90625 0 L 22.265625 -4.15625 L 22.046875 -4.15625 C 20.734375 -2.507812 19.34375 -1.3125 17.875 -0.5625 C 16.414062 0.1875 14.410156 0.5625 11.859375 0.5625 C 9.128906 0.5625 6.863281 -0.222656 5.0625 -1.796875 C 3.257812 -3.367188 2.359375 -5.828125 2.359375 -9.171875 C 2.359375 -12.429688 3.5 -14.828125 5.78125 -16.359375 C 8.070312 -17.898438 11.503906 -18.765625 16.078125 -18.953125 L 21.421875 -19.125 L 21.421875 -20.46875 C 21.421875 -22.082031 21 -23.265625 20.15625 -24.015625 C 19.3125 -24.765625 18.140625 -25.140625 16.640625 -25.140625 C 15.140625 -25.140625 13.675781 -24.921875 12.25 -24.484375 C 10.832031 -24.054688 9.410156 -23.523438 7.984375 -22.890625 L 5.234375 -28.5625 C 6.835938 -29.382812 8.648438 -30.050781 10.671875 -30.5625 C 12.703125 -31.070312 14.804688 -31.328125 16.984375 -31.328125 Z M 21.421875 -14.234375 L 18.15625 -14.109375 C 15.457031 -14.035156 13.582031 -13.546875 12.53125 -12.640625 C 11.488281 -11.742188 10.96875 -10.566406 10.96875 -9.109375 C 10.96875 -7.835938 11.34375 -6.925781 12.09375 -6.375 C 12.84375 -5.832031 13.816406 -5.5625 15.015625 -5.5625 C 16.816406 -5.5625 18.332031 -6.09375 19.5625 -7.15625 C 20.800781 -8.226562 21.421875 -9.742188 21.421875 -11.703125 Z M 21.421875 -14.234375 "/></g></g></g><g fill="#162029" fill-opacity="1"><g transform="translate(225.954503, 225.37914)"><g><path d="M 16.875 0.5625 C 12.300781 0.5625 8.765625 -0.691406 6.265625 -3.203125 C 3.773438 -5.710938 2.53125 -9.707031 2.53125 -15.1875 C 2.53125 -18.9375 3.164062 -21.988281 4.4375 -24.34375 C 5.71875 -26.707031 7.488281 -28.453125 9.75 -29.578125 C 12.019531 -30.703125 14.632812 -31.265625 17.59375 -31.265625 C 19.695312 -31.265625 21.523438 -31.054688 23.078125 -30.640625 C 24.640625 -30.234375 26 -29.75 27.15625 -29.1875 L 24.6875 -22.71875 C 23.375 -23.238281 22.144531 -23.664062 21 -24 C 19.851562 -24.34375 18.71875 -24.515625 17.59375 -24.515625 C 13.25 -24.515625 11.078125 -21.421875 11.078125 -15.234375 C 11.078125 -12.160156 11.648438 -9.890625 12.796875 -8.421875 C 13.941406 -6.960938 15.539062 -6.234375 17.59375 -6.234375 C 19.363281 -6.234375 20.921875 -6.46875 22.265625 -6.9375 C 23.617188 -7.40625 24.929688 -8.054688 26.203125 -8.890625 L 26.203125 -1.75 C 24.929688 -0.914062 23.59375 -0.320312 22.1875 0.03125 C 20.78125 0.382812 19.007812 0.5625 16.875 0.5625 Z M 16.875 0.5625 "/></g></g></g><g fill="#162029" fill-opacity="1"><g transform="translate(254.854427, 225.37914)"><g><path d="M 12.765625 -42.734375 L 12.765625 -23.625 C 12.765625 -22.457031 12.71875 -21.300781 12.625 -20.15625 C 12.53125 -19.007812 12.425781 -17.859375 12.3125 -16.703125 L 12.421875 -16.703125 C 12.984375 -17.484375 13.566406 -18.269531 14.171875 -19.0625 C 14.773438 -19.851562 15.410156 -20.625 16.078125 -21.375 L 24.6875 -30.703125 L 34.140625 -30.703125 L 21.9375 -17.375 L 34.859375 0 L 25.1875 0 L 16.359375 -12.421875 L 12.765625 -9.5625 L 12.765625 0 L 4.390625 0 L 4.390625 -42.734375 Z M 12.765625 -42.734375 "/></g></g></g><g clip-path="url(#30f5781f0b)"><path fill="#162029" d="M 325.152344 196.238281 L 313.578125 184.652344 L 290.429688 207.8125 L 313.578125 230.960938 L 325.152344 219.386719 L 313.578125 207.8125 Z M 325.152344 196.238281 " fill-opacity="1" fill-rule="nonzero"/></g><g clip-path="url(#bcaf1b50a7)"><path fill="#162029" d="M 336.726562 184.652344 L 325.152344 196.238281 L 336.726562 207.8125 L 325.152344 219.386719 L 336.726562 230.960938 L 359.886719 207.8125 Z M 336.726562 184.652344 " fill-opacity="1" fill-rule="nonzero"/></g></svg>