<svg width="81" height="96" viewBox="0 0 81 96" fill="none" xmlns="http://www.w3.org/2000/svg">
<path d="M47.901 84C46.9538 84 46.013 83.7471 45.1825 83.2603L36.5294 78.0458C35.2369 77.3101 35.8676 77.0499 36.2939 76.8999C38.0171 76.2858 38.3668 76.1471 40.2062 75.0838C40.3995 74.9716 40.6525 75.0112 40.8504 75.1301L47.4981 79.1454C47.7382 79.2774 48.0788 79.2774 48.3013 79.1454L74.2211 63.9163C74.4612 63.7776 74.6169 63.4937 74.6169 63.2031V32.7583C74.6169 32.4545 74.4612 32.1837 74.216 32.0318L48.3065 16.816C48.0665 16.6707 47.7485 16.6707 47.5085 16.816L21.6042 32.0318C21.3531 32.1771 21.1935 32.4611 21.1935 32.7517V63.1965C21.1935 63.4871 21.3492 63.7644 21.5958 63.9031L28.6937 68.0769C32.5476 70.0383 34.9028 67.7269 34.9028 65.4022V35.3537C34.9028 34.9244 35.2337 34.5942 35.6554 34.5942H38.9384C39.3471 34.5942 39.6845 34.9244 39.6845 35.3537V65.4155C39.6845 70.6459 36.8817 73.6508 32.0091 73.6508C30.5104 73.6508 29.3296 73.6508 26.0336 71.9997L19.2341 68.0109C17.5537 67.0202 16.5156 65.1711 16.5156 63.1965V32.7517C16.5156 30.7704 17.5537 28.9213 19.2341 27.9439L45.1799 12.7083C46.8214 11.7639 49.0014 11.7639 50.6299 12.7083L76.5432 27.9505C78.2171 28.9345 79.2617 30.7771 79.2617 32.7583V63.2031C79.2617 65.1777 78.2171 67.0202 76.5432 68.0109L50.6299 83.2465C49.7994 83.7352 48.8586 83.9861 47.8984 83.9861" fill="black" fill-opacity="0.2"/>
<path d="M55.9065 63.0214C44.5654 63.0214 42.1875 57.7223 42.1875 53.2778C42.1875 52.8551 42.5223 52.5183 42.9382 52.5183H46.286C46.6558 52.5183 46.9673 52.7924 47.0257 53.1642C47.5317 56.6366 49.037 58.388 55.8948 58.388C61.3578 58.388 63.6805 57.1319 63.6805 54.1832C63.6805 52.4859 63.0187 51.2245 54.5324 50.3792C47.4344 49.666 43.0485 48.0744 43.0485 42.2958C43.0485 36.9729 47.4604 33.803 54.8503 33.803C63.1485 33.803 67.2619 36.7352 67.781 43.0355C67.8004 43.2534 67.7226 43.4647 67.5799 43.6232C67.4371 43.7751 67.236 43.8676 67.0284 43.8676H63.6611C63.3107 43.8676 63.0058 43.6166 62.9344 43.2732C62.1234 39.6212 60.164 38.4522 54.8373 38.4522C48.8748 38.4522 48.1805 40.5656 48.1805 42.1505C48.1805 44.0723 48.998 44.6337 57.0432 45.7167C65.0106 46.7932 68.7931 48.3121 68.7931 54.0115C68.7931 59.757 64.0828 63.0525 55.8689 63.0525L55.9065 63.0214Z" fill="black" fill-opacity="0.2"/>
</svg>
