<svg width="522" height="324" viewBox="0 0 522 324" fill="none" xmlns="http://www.w3.org/2000/svg">
<g clip-path="url(#clip0_331_11362)">
<path d="M428.564 618.717C154.965 365.084 -191.789 -78.6946 609.992 175.253L428.564 618.717Z" fill="#FC9B4E"/>
<path d="M530.898 624.222C257.299 370.589 -114.678 -11.5351 687.102 242.412L530.898 624.222Z" fill="black"/>
<path d="M626.038 635.404C346.215 396.982 -35.862 39.5418 762.667 301.441L626.038 635.404Z" fill="#FC9B4E"/>
<path d="M580.031 553.606C404.663 391.763 166.179 147.992 679.351 310.84L580.031 553.606Z" fill="black"/>
<path d="M248.147 184.66C247.438 184.37 246.628 184.71 246.337 185.419C246.047 186.129 246.387 186.939 247.096 187.229C247.806 187.52 248.616 187.18 248.906 186.47C249.197 185.761 248.857 184.951 248.147 184.66Z" fill="#FC9B4E"/>
<path d="M219.656 145.264C220.188 145.482 220.443 146.09 220.225 146.622C220.007 147.154 219.4 147.409 218.868 147.191C218.336 146.973 218.081 146.366 218.298 145.834C218.516 145.301 219.124 145.047 219.656 145.264Z" fill="black"/>
<path d="M368.422 153.645C368.954 153.863 369.208 154.471 368.991 155.003C368.773 155.535 368.165 155.79 367.633 155.572C367.101 155.354 366.846 154.746 367.064 154.214C367.282 153.682 367.889 153.427 368.422 153.645Z" fill="black"/>
<path d="M236.202 278.406C245.951 279.079 253.309 287.528 252.635 297.277C251.962 307.027 243.513 314.384 233.764 313.711C224.015 313.038 216.657 304.589 217.33 294.84C218.003 285.09 226.452 277.733 236.202 278.406Z" fill="#FC9B4E"/>
<path d="M233.764 313.711C224.015 313.038 216.637 304.877 217.33 294.84C217.679 289.793 219.049 286.573 222.666 283.036C222.499 285.459 240.436 312.781 240.436 312.781C240.436 312.781 238.956 314.07 233.764 313.711Z" fill="black"/>
<path d="M323.579 252.258C324.466 252.621 324.891 253.634 324.528 254.521C324.165 255.407 323.152 255.832 322.266 255.469C321.379 255.107 320.954 254.094 321.317 253.207C321.68 252.32 322.693 251.895 323.579 252.258Z" fill="black"/>
<path d="M187.611 280.112L186.77 280.307C186.511 280.367 186.252 280.206 186.192 279.946L185.997 279.106C185.937 278.847 186.098 278.588 186.358 278.528L187.198 278.333C187.457 278.273 187.716 278.434 187.777 278.693L187.971 279.534C188.032 279.793 187.87 280.052 187.611 280.112Z" fill="black"/>
<path d="M296.912 150.581L295.986 150.714C295.647 150.763 295.333 150.528 295.285 150.19L295.151 149.263C295.102 148.925 295.337 148.611 295.676 148.562L296.602 148.429C296.941 148.38 297.254 148.615 297.303 148.953L297.437 149.88C297.486 150.218 297.251 150.532 296.912 150.581Z" fill="black"/>
<path d="M239.611 236.378C239.823 236.202 239.898 235.911 239.797 235.655L239.363 234.558C239.262 234.302 239.008 234.141 238.733 234.158L237.556 234.232C237.282 234.249 237.049 234.441 236.981 234.707L236.687 235.849C236.619 236.116 236.73 236.396 236.962 236.543L237.957 237.176C238.189 237.323 238.49 237.304 238.702 237.129L239.611 236.378Z" fill="#FC9B4E"/>
<path d="M388.904 304.902C389.025 304.84 389.093 304.706 389.072 304.572L388.98 303.994C388.959 303.859 388.853 303.753 388.719 303.732L388.141 303.641C388.006 303.619 387.873 303.687 387.811 303.809L387.545 304.33C387.483 304.451 387.507 304.599 387.603 304.696L388.017 305.109C388.113 305.206 388.261 305.229 388.383 305.167L388.904 304.902Z" fill="#FC9B4E"/>
<path d="M440.771 265.489C440.933 265.375 441.004 265.169 440.946 264.979L440.697 264.164C440.639 263.974 440.465 263.843 440.266 263.84L439.414 263.825C439.215 263.821 439.037 263.946 438.972 264.134L438.695 264.94C438.63 265.128 438.694 265.336 438.853 265.456L439.533 265.968C439.692 266.088 439.91 266.092 440.073 265.978L440.771 265.489Z" fill="#FC9B4E"/>
</g>
<defs>
<clipPath id="clip0_331_11362">
<rect width="541" height="324" fill="white" transform="matrix(-1 0 0 1 541 0)"/>
</clipPath>
</defs>
</svg>
