<svg width="95" height="96" viewBox="0 0 95 96" fill="none" xmlns="http://www.w3.org/2000/svg">
<path d="M47.0244 15.8401C30.6767 15.8401 31.6976 23.0562 31.6976 23.0562L31.7158 30.532H47.316V32.7766H25.5195C25.5195 32.7766 15.0586 31.569 15.0586 48.359C15.0586 65.1489 24.1891 64.5535 24.1891 64.5535H29.6382V56.7623C29.6382 56.7623 29.3445 47.4686 38.6229 47.4686C47.9014 47.4686 54.0956 47.4686 54.0956 47.4686C54.0956 47.4686 62.7887 47.6116 62.7887 38.9168C62.7887 30.222 62.7887 24.5402 62.7887 24.5402C62.7887 24.5402 64.1085 15.8401 47.0244 15.8401ZM38.4225 20.8673C39.9746 20.8673 41.229 22.1442 41.229 23.724C41.229 25.3039 39.9746 26.5808 38.4225 26.5808C36.8704 26.5808 35.6159 25.3039 35.6159 23.724C35.6159 22.1442 36.8704 20.8673 38.4225 20.8673Z" fill="black" fill-opacity="0.2"/>
<path d="M47.489 81.0464C63.8367 81.0464 62.8159 73.8302 62.8159 73.8302L62.7977 66.3544H47.1975V64.1098H68.994C68.994 64.1098 79.4549 65.3174 79.4549 48.5275C79.4549 31.7375 70.3244 32.3329 70.3244 32.3329H64.8753V40.1241C64.8753 40.1241 65.169 49.4179 55.8906 49.4179C46.6121 49.4179 40.4179 49.4179 40.4179 49.4179C40.4179 49.4179 31.7248 49.2748 31.7248 57.9696C31.7248 66.6644 31.7248 72.3462 31.7248 72.3462C31.7248 72.3462 30.405 81.0464 47.489 81.0464ZM56.091 76.0192C54.5389 76.0192 53.2845 74.7423 53.2845 73.1624C53.2845 71.5826 54.5389 70.3057 56.091 70.3057C57.6431 70.3057 58.8976 71.5826 58.8976 73.1624C58.8976 74.7423 57.6431 76.0192 56.091 76.0192Z" fill="black" fill-opacity="0.2"/>
</svg>
