<svg width="95" height="96" viewBox="0 0 95 96" fill="none" xmlns="http://www.w3.org/2000/svg">
<g clip-path="url(#clip0_1235_2814)">
<path d="M47.4904 54.3476C51.1117 54.3476 54.0473 51.3982 54.0473 47.7599C54.0473 44.1215 51.1117 41.1721 47.4904 41.1721C43.8692 41.1721 40.9336 44.1215 40.9336 47.7599C40.9336 51.3982 43.8692 54.3476 47.4904 54.3476Z" fill="black" fill-opacity="0.2"/>
<path fill-rule="evenodd" clip-rule="evenodd" d="M16.0998 43.6494C14.5089 45.0923 13.8406 46.484 13.8406 47.76C13.8406 49.0361 14.5089 50.4277 16.0998 51.8706C17.6905 53.3134 20.0784 54.6832 23.1595 55.8652C29.3113 58.2251 37.9133 59.717 47.491 59.717C57.0688 59.717 65.6708 58.2251 71.8225 55.8652C74.9037 54.6832 77.2916 53.3134 78.8823 51.8706C80.4732 50.4277 81.1415 49.0361 81.1415 47.76C81.1415 46.484 80.4732 45.0923 78.8823 43.6494C77.2916 42.2067 74.9037 40.8368 71.8225 39.6549C65.6708 37.2949 57.0688 35.803 47.491 35.803C37.9133 35.803 29.3113 37.2949 23.1595 39.6549C20.0784 40.8368 17.6905 42.2067 16.0998 43.6494ZM22.0662 36.7778C28.6482 34.2528 37.6377 32.7234 47.491 32.7234C57.3444 32.7234 66.3339 34.2528 72.9159 36.7778C76.2016 38.0383 78.9662 39.5767 80.9362 41.3635C82.906 43.15 84.2067 45.309 84.2067 47.76C84.2067 50.2111 82.906 52.37 80.9362 54.1566C78.9662 55.9433 76.2016 57.4818 72.9159 58.7423C66.3339 61.2672 57.3444 62.7967 47.491 62.7967C37.6377 62.7967 28.6482 61.2672 22.0662 58.7423C18.7804 57.4818 16.0159 55.9433 14.0459 54.1566C12.0761 52.37 10.7754 50.2111 10.7754 47.76C10.7754 45.309 12.0761 43.15 14.0459 41.3635C16.0159 39.5767 18.7804 38.0383 22.0662 36.7778Z" fill="black" fill-opacity="0.2"/>
<path fill-rule="evenodd" clip-rule="evenodd" d="M35.3381 18.391C33.2989 17.7282 31.7652 17.8425 30.6653 18.4805C29.5654 19.1185 28.7 20.3959 28.2517 22.5016C27.8035 24.6071 27.8167 27.3697 28.3384 30.6416C29.3801 37.1742 32.3952 45.4049 37.184 53.7385C41.9729 62.0721 47.5599 68.8108 52.6699 72.9835C55.2293 75.0735 57.604 76.4663 59.643 77.129C61.6821 77.7918 63.2159 77.6775 64.3158 77.0395C65.4156 76.4014 66.281 75.1241 66.7293 73.0184C67.1776 70.9129 67.1644 68.1503 66.6426 64.8784C65.6009 58.3458 62.5859 50.1151 57.797 41.7815C53.0082 33.4479 47.4212 26.7091 42.3111 22.5364C39.7518 20.4465 37.377 19.0537 35.3381 18.391ZM44.2444 20.1466C49.7118 24.6111 55.5249 31.6682 60.4516 40.2417C65.3782 48.8151 68.5547 57.4016 69.6692 64.3912C70.2256 67.8804 70.2818 71.0551 69.7267 73.6625C69.1717 76.2698 67.961 78.481 65.8484 79.7065C63.7357 80.932 61.2244 80.8798 58.6995 80.0591C56.1744 79.2384 53.466 77.6021 50.7367 75.3734C45.2692 70.9088 39.4562 63.8518 34.5295 55.2783C29.6028 46.7048 26.4264 38.1183 25.3118 31.1288C24.7554 27.6396 24.6992 24.4649 25.2543 21.8574C25.8094 19.2502 27.02 17.039 29.1327 15.8135C31.2454 14.588 33.7567 14.6402 36.2816 15.4609C38.8067 16.2816 41.515 17.9178 44.2444 20.1466Z" fill="black" fill-opacity="0.2"/>
<path fill-rule="evenodd" clip-rule="evenodd" d="M66.7305 22.5016C66.2822 20.3959 65.4168 19.1185 64.3169 18.4805C63.217 17.8425 61.6833 17.7282 59.6441 18.391C57.6052 19.0537 55.2305 20.4465 52.6711 22.5364C47.561 26.7091 41.974 33.4478 37.1852 41.7815C32.3963 50.1151 29.3813 58.3457 28.3396 64.8784C27.8178 68.1503 27.8047 70.9129 28.2529 73.0184C28.7012 75.1241 29.5666 76.4014 30.6665 77.0394C31.7663 77.6774 33.3001 77.7918 35.3392 77.129C37.3782 76.4662 39.7529 75.0735 42.3123 72.9835C47.4223 68.8108 53.0093 62.0721 57.7982 53.7385C62.587 45.4048 65.6021 37.1742 66.6438 30.6416C67.1655 27.3697 67.1787 24.607 66.7305 22.5016ZM69.6704 31.1288C68.5558 38.1183 65.3794 46.7048 60.4527 55.2783C55.526 63.8517 49.713 70.9088 44.2455 75.3734C41.5162 77.6021 38.8078 79.2383 36.2827 80.0591C33.7578 80.8797 31.2466 80.932 29.1339 79.7065C27.0212 78.481 25.8106 76.2698 25.2555 73.6625C24.7004 71.055 24.7566 67.8804 25.313 64.3912C26.4275 57.4016 29.604 48.8151 34.5306 40.2417C39.4573 31.6682 45.2704 24.6111 50.7378 20.1465C53.4672 17.9178 56.1756 16.2816 58.7006 15.4609C61.2255 14.6402 63.7368 14.588 65.8495 15.8135C67.9622 17.039 69.1728 19.2502 69.7279 21.8574C70.283 24.4649 70.2268 27.6396 69.6704 31.1288Z" fill="black" fill-opacity="0.2"/>
</g>
<defs>
<clipPath id="clip0_1235_2814">
<rect width="73.5646" height="65.76" fill="white" transform="translate(10.709 14.8799)"/>
</clipPath>
</defs>
</svg>
